<svg viewBox="0 0 59 65" fill="#F8F8F6" xmlns="http://www.w3.org/2000/svg">
<path d="M28.7617 0.100586C29.99 0.108536 31.2158 0.14657 32.4404 0.211914L33.665 0.286133C35.0475 0.382022 36.4802 0.425864 37.8662 0.644531C39.1634 0.849198 40.4106 1.20592 41.5205 1.89844L41.7412 2.04199C42.4679 2.53258 42.8035 3.09316 42.8018 3.64746C42.8001 4.13443 42.5383 4.64406 42 5.125L41.752 5.3291C40.7179 6.11708 39.4983 6.40895 38.2451 6.6084L37.707 6.68945C32.4819 7.42951 27.2522 7.46654 22.0352 6.81348L20.9912 6.67383C19.9494 6.5263 18.8776 6.24107 17.916 5.7998L17.5107 5.60156C16.9353 5.29831 16.4492 4.84805 16.208 4.32617C15.9843 3.84179 15.9683 3.28964 16.2988 2.71777L16.3691 2.60352V2.60254C16.7665 1.99541 17.4186 1.602 18.1162 1.31152L18.417 1.19336C20.1398 0.548457 21.9864 0.325365 23.8389 0.21582L24.6328 0.174805C26.0106 0.116512 27.3834 0.0952937 28.7617 0.100586ZM29.4219 2.45898C26.1486 2.41643 22.9751 2.83104 19.8545 3.79492L19.4941 3.90625L19.8623 3.98828C26.1199 5.38004 32.6291 4.75093 38.9883 4.11035L39.0361 4.12891L39.2852 3.87988L39.0127 3.90723C38.0629 3.55184 36.7297 3.27357 35.584 3.07031L34.5107 2.88965H34.5098C33.0382 2.65682 31.5504 2.51805 30.0605 2.47266L29.4219 2.45898Z" stroke="black" stroke-width="0.2"/>
<path d="M29.3779 11.1445C34.2392 11.1603 38.1302 14.9926 38.125 19.7383L38.1123 20.1953C37.8683 24.7509 34.0842 28.5768 29.6797 28.9619L29.2373 28.9893C27.2562 29.0572 25.0038 28.1605 23.2598 26.5723C21.6263 25.0847 20.4455 22.9966 20.3496 20.5391L20.3447 20.042V20.04C20.3193 15.1906 24.0404 11.3746 28.9043 11.1553L29.3779 11.1445ZM29.2412 15.4668C27.9432 15.4506 26.75 16.0582 25.9121 16.9521C25.0946 17.8244 24.6089 18.978 24.6982 20.1064V20.1787C24.714 22.7046 26.5193 24.5887 28.998 24.7139L29.2402 24.7207C31.8853 24.7314 33.8725 22.7493 33.8672 20.1094L33.8604 19.8662C33.7326 17.4577 31.8622 15.6202 29.4814 15.4756L29.2412 15.4668Z" stroke="black" stroke-width="0.2"/>
<path d="M25.2861 32.1895C24.9222 32.4382 24.6527 32.6365 24.3936 32.8008L24.1035 32.9707C21.5973 34.3033 20.4051 35.0338 19.6113 36.0107C19.2139 36.4999 18.9183 37.0474 18.6064 37.7549C18.451 38.1075 18.2903 38.5023 18.1104 38.9512L17.499 40.4717C17.1452 41.328 16.7859 42.1842 16.4316 43.0312C12.4641 41.6705 8.24827 37.5344 5.09082 32.5898C1.94852 27.669 -0.12735 21.9771 0.121094 17.4814C8.5501 22.4046 16.7998 27.2299 25.2861 32.1895Z" stroke="black" stroke-width="0.2"/>
<path d="M58.3821 17.6313C58.2784 18.4416 58.2024 19.1381 58.1077 19.8022L57.9963 20.5054V20.5063C56.2841 30.2818 51.2172 37.7007 42.8342 42.8022L42.012 43.2886C41.7027 43.4679 41.4579 43.5518 41.2268 43.5435C41.0548 43.5372 40.8805 43.4796 40.6838 43.3569L40.4788 43.2114C39.2664 42.2596 37.9764 41.4069 36.7278 40.5181L36.6565 40.4673L36.5969 40.5317C36.5632 40.5681 36.529 40.6032 36.4944 40.6392L36.3899 40.7495L36.3469 40.7954L36.3704 40.854L40.9182 52.5825C42.4008 56.3995 43.8934 60.2173 45.4329 64.1733C45.0781 64.2424 44.752 64.3189 44.4504 64.3813C44.1968 64.4339 43.9567 64.476 43.7209 64.4985L43.4866 64.5142C42.5599 64.5433 41.6329 64.5383 40.7034 64.5376C40.0068 64.5371 39.309 64.5388 38.6106 64.5601L37.9124 64.5884C37.4643 64.6112 37.192 64.4993 36.9963 64.312C36.8446 64.1667 36.7325 63.971 36.6252 63.7358L36.5188 63.4878L33.4758 56.2202L30.4202 48.9565C30.2337 48.5143 30.0324 48.0728 29.6506 47.6255L29.5022 47.4517L29.4758 47.6782C29.44 47.9801 29.3743 48.3082 29.3743 48.6343C29.3743 51.1531 29.3586 53.6768 29.3713 56.1987L29.3948 58.7192V58.7202C29.4025 59.1526 29.342 59.5126 29.2004 59.8286C29.0943 60.0655 28.9409 60.2816 28.7317 60.4868L28.5032 60.689C27.8834 61.1891 27.2819 61.714 26.6809 62.2349C26.2296 62.626 25.7784 63.015 25.3176 63.3901L24.8538 63.7603C24.4557 64.0714 23.9379 64.3513 23.4622 64.4263L23.262 64.4448C19.904 64.5297 16.5464 64.5129 13.1858 64.5288C13.1123 64.5287 13.0361 64.5178 12.9329 64.4956C12.8561 64.4791 12.7631 64.4577 12.6506 64.4341C12.8251 63.954 12.9933 63.4869 13.1604 63.0269L13.7043 61.561C15.8138 56.0209 17.9352 50.486 20.0374 44.9438L22.1321 39.3979C22.5519 38.2752 23.166 37.5265 24.1907 36.9087L24.4016 36.7866C28.1643 34.6903 31.9137 32.5684 35.6584 30.439L46.8879 24.0435L57.1516 18.2222C57.4863 18.0309 57.8384 17.8833 58.3821 17.6313Z" stroke="black" stroke-width="0.2"/>
</svg>
