<svg xmlns="http://www.w3.org/2000/svg" viewBox="0 0 24 25" fill="white">
  <path d="M12 2.21167C9.81276 2.21425 7.71584 3.08427 6.16923 4.63089C4.62261 6.17751 3.75259 8.27443 3.75001 10.4617C3.74739 12.2491 4.33124 13.988 5.41201 15.4117C5.41201 15.4117 5.63701 15.7079 5.67376 15.7507L12 23.2117L18.3293 15.7469C18.3623 15.7072 18.588 15.4117 18.588 15.4117L18.5888 15.4094C19.669 13.9864 20.2526 12.2483 20.25 10.4617C20.2474 8.27443 19.3774 6.17751 17.8308 4.63089C16.2842 3.08427 14.1873 2.21425 12 2.21167V2.21167ZM12 13.4617C11.4067 13.4617 10.8266 13.2857 10.3333 12.9561C9.83995 12.6264 9.45543 12.1579 9.22837 11.6097C9.00131 11.0615 8.9419 10.4583 9.05765 9.8764C9.17341 9.29446 9.45913 8.75991 9.87869 8.34035C10.2982 7.92079 10.8328 7.63507 11.4147 7.51931C11.9967 7.40356 12.5999 7.46297 13.1481 7.69003C13.6962 7.91709 14.1648 8.30161 14.4944 8.79496C14.8241 9.28831 15 9.86833 15 10.4617C14.999 11.257 14.6826 12.0195 14.1202 12.5819C13.5578 13.1443 12.7954 13.4607 12 13.4617V13.4617Z"/>
</svg>