<svg xmlns="http://www.w3.org/2000/svg"  viewBox="0 0 100 48" fill="#313139">
  <g clip-path="url(#clip0_574_3611)">
    <path d="M25.0044 27.9885C26.0452 30.6705 27.0824 33.3526 28.1232 36.0309C29.1494 38.6729 30.1829 41.3149 31.2492 44.0552C30.6997 44.1571 30.263 44.2917 29.8226 44.3063C28.5489 44.3463 27.2752 44.2917 26.0015 44.3573C25.3574 44.39 25.1755 44.0334 24.979 43.5603C23.5925 40.2378 22.195 36.9152 20.7976 33.5964C20.6702 33.2943 20.5356 32.9996 20.2809 32.7011C20.2554 32.9159 20.2117 33.1306 20.2117 33.3489C20.2117 35.6525 20.1935 37.9597 20.2263 40.2632C20.2372 40.871 20.0552 41.2931 19.5894 41.6679C18.7415 42.3521 17.9445 43.1054 17.0857 43.775C16.7691 44.0225 16.336 44.2481 15.9539 44.259C13.6504 44.3172 11.3468 44.3063 9.04325 44.3172C8.92679 44.3172 8.81034 44.2772 8.58472 44.2335C8.84309 43.5239 9.07964 42.8543 9.33438 42.1883C11.2631 37.1227 13.2064 32.0643 15.1133 26.9914C15.4263 26.1544 15.8957 25.6121 16.7 25.1645C21.8602 22.2896 26.9841 19.3456 32.1189 16.427C34.4625 15.0951 36.8097 13.7632 39.157 12.4349C39.4117 12.2893 39.6846 12.1801 40.1177 11.9763C40.0122 12.7842 39.9503 13.432 39.8375 14.0725C38.622 21.0123 34.9465 26.2271 28.8437 29.7425C28.4106 29.9936 28.1195 30.0009 27.7156 29.6843C26.8859 29.0329 26.0052 28.4507 25.1464 27.8393C25.099 27.8902 25.0517 27.9375 25.0044 27.9885Z" />
    <path d="M0.0217771 11.8708C5.86621 15.2843 11.5833 18.6287 17.4677 22.0676C17.0783 22.3296 16.8345 22.5225 16.5616 22.6681C13.119 24.4986 13.3446 24.6478 12.0636 27.7774C11.8125 28.3851 11.5578 28.9929 11.3067 29.5933C5.78614 27.7556 -0.404 18.1119 0.0217771 11.8708Z" />
    <path d="M58.4516 18.1701C58.4443 22.2132 56.7266 24.7715 53.8517 25.8341C50.8749 26.9368 47.6361 26.1798 45.6382 23.8981C44.3791 22.457 43.9024 20.7102 43.9278 18.8506C43.9642 16.4743 44.703 14.3527 46.7482 12.9407C49.2482 11.2158 51.9557 11.0302 54.656 12.3584C57.3562 13.6867 58.397 16.0885 58.4479 18.1701H58.4516ZM46.6863 19.0071C46.7482 19.4001 46.7809 19.9497 46.9338 20.4664C47.5742 22.6499 49.4302 23.8144 51.4354 23.7089C53.4078 23.6033 54.9471 22.2605 55.4784 20.3281C56.0243 18.3302 55.3474 16.1104 53.8081 15.0259C52.3379 13.9888 50.733 13.9269 49.1536 14.6875C47.4469 15.5099 46.8137 17.0456 46.6863 19.0071Z" />
    <path d="M44.5719 43.8223V29.4587C44.8157 29.4296 45.0159 29.3786 45.216 29.3823C46.9373 29.4332 48.6805 29.3459 50.3799 29.586C53.9645 30.0919 55.8641 33.0068 56.1698 35.6852C56.672 40.0922 53.8589 43.2691 49.9505 43.6112C48.2074 43.7641 46.4533 43.7531 44.5719 43.8223ZM47.2648 41.2276C49.5211 41.2967 51.5153 41.0384 52.7745 39.0004C53.7425 37.4356 53.6406 35.1175 52.5197 33.6873C51.1623 31.9551 49.2773 31.8277 47.2648 31.9915V41.224V41.2276Z" />
    <path d="M62.1889 44.9031C63.0004 44.743 63.6773 44.612 64.3469 44.481C65.7189 45.7619 67.1854 46.1004 68.521 45.398C69.8129 44.7175 69.7328 43.5057 69.6819 42.1265C68.2772 43.3929 66.7305 43.633 65.0747 43.1672C63.9794 42.8579 63.1533 42.1556 62.5455 41.2021C61.1918 39.0841 61.5521 35.9909 63.328 34.3533C65.0493 32.7666 67.4693 32.7484 69.6054 34.3678C69.6637 34.0294 69.7183 33.731 69.7801 33.3707H72.2766C72.302 33.64 72.3457 33.8984 72.3457 34.1604C72.3457 36.9771 72.3493 39.7938 72.3311 42.6105C72.3275 43.1818 72.2693 43.7604 72.1747 44.3281C71.9272 45.8565 71.0756 46.9446 69.6309 47.5014C67.9606 48.1492 66.2502 48.1783 64.5725 47.5415C63.3862 47.0902 62.5455 46.2714 62.1853 44.9067L62.1889 44.9031ZM69.7073 38.2726C69.7183 36.6605 68.6811 35.5906 67.0763 35.5542C65.5114 35.5178 64.4306 36.555 64.3979 38.1198C64.3651 39.7901 65.4386 40.9401 67.0289 40.9437C68.6374 40.9437 69.6964 39.892 69.7073 38.2726Z" />
    <path d="M93.3944 26.0816H90.9235C90.9053 25.7359 90.8725 25.4156 90.8689 25.0954C90.8616 23.3086 90.8871 21.5181 90.8507 19.7313C90.8252 18.4613 90.1411 17.8572 88.9656 17.9518C88.1577 18.0173 87.5573 18.5158 87.3862 19.3274C87.3098 19.6767 87.2953 20.0479 87.2953 20.4082C87.288 22.2569 87.2916 24.1019 87.2916 26.0306H84.7661C84.7479 25.714 84.7188 25.3901 84.7188 25.0663C84.7151 23.2795 84.737 21.489 84.7078 19.7022C84.6897 18.4467 83.9509 17.8171 82.7172 17.9227C81.6983 18.01 81.0833 18.7087 81.0724 19.8332C81.0578 21.5618 81.0687 23.2867 81.0687 25.0153C81.0687 25.3428 81.0687 25.6704 81.0687 26.0525H78.5177V15.8302H80.8213C80.8613 16.1177 80.905 16.3979 80.9486 16.6999C82.9538 14.924 85.2901 15.1096 86.8295 16.9801C87.7574 15.8884 88.9401 15.3898 90.3703 15.5099C92.048 15.6519 93.2489 16.6563 93.3653 18.4831C93.5254 20.9795 93.4053 23.4942 93.4053 26.0779L93.3944 26.0816Z" />
    <path d="M13.8832 13.7413C13.865 10.2696 16.6162 7.56209 20.1461 7.57301C23.5159 7.58393 26.2162 10.2405 26.2125 13.5339C26.2089 16.9365 23.3376 19.8332 20.0515 19.946C17.293 20.0406 13.8068 17.4532 13.8832 13.7413ZM17.0056 13.8359C17.0165 15.5864 18.3047 16.8746 20.0515 16.8819C21.8274 16.8892 23.1593 15.5609 23.1557 13.7886C23.1484 12.0382 21.7801 10.6954 20.0515 10.6735C18.3156 10.6517 16.8491 12.3002 17.0092 13.8359H17.0056Z" />
    <path d="M68.5392 15.9612C67.2364 17.4168 65.93 18.8761 64.5544 20.4155C65.97 22.286 67.3602 24.1274 68.8558 26.1034C67.7823 26.1034 66.8834 26.1325 65.9882 26.0816C65.7771 26.0707 65.5333 25.8196 65.3805 25.6231C64.4671 24.4149 63.5755 23.1921 62.6766 21.9767C62.5565 21.8129 62.4255 21.6564 62.1598 21.318V26.0488H59.5797V11.9618H62.0871V19.6476C62.1453 19.6767 62.2072 19.7058 62.2654 19.7313C62.4946 19.4475 62.7348 19.1709 62.9568 18.8798C63.5973 18.0355 64.2414 17.1948 64.8601 16.3324C65.1512 15.9284 65.4933 15.7356 66.0064 15.7574C66.8179 15.7901 67.6331 15.7647 68.4482 15.7647C68.481 15.8302 68.5101 15.8993 68.5429 15.9648L68.5392 15.9612Z" />
    <path d="M95.6433 43.7204H93.1214C93.0705 43.3783 93.0232 43.0581 92.9613 42.6578C92.7866 42.7924 92.6302 42.898 92.4919 43.0217C91.2 44.1607 88.507 44.0152 87.4117 43.3237C85.5812 42.1738 85.643 39.4881 87.5317 38.4291C88.8746 37.6758 90.3812 37.694 91.8514 37.563C92.1753 37.5339 92.5028 37.5594 92.8157 37.5594C92.9431 36.3694 92.652 35.8235 91.7895 35.5105C90.6104 35.0811 89.5151 35.4487 88.689 36.5877C88.0048 36.4931 87.2916 36.3912 86.5164 36.282C86.5783 35.4632 86.9349 34.8373 87.499 34.3096C88.9947 32.9159 92.3281 32.7266 93.9657 33.9603C94.7663 34.5644 95.3813 35.3395 95.4286 36.3694C95.5378 38.7821 95.5742 41.1948 95.647 43.7204H95.6433ZM92.8339 39.4481C91.6731 39.2807 90.0573 39.3717 89.4678 39.63C89.0201 39.8229 88.7072 40.1286 88.6999 40.6526C88.689 41.1803 88.9983 41.4969 89.4459 41.6898C91.0872 42.3994 92.7903 41.2967 92.8376 39.4517L92.8339 39.4481Z" />
    <path d="M19.724 9.27539e-07C20.8485 0.00727917 21.9694 0.0509486 23.0902 0.12737C24.9789 0.258379 27.0423 0.247461 28.6617 1.34284C29.6806 2.03063 29.6588 2.95497 28.6726 3.70827C27.8465 4.33783 26.8531 4.51251 25.8668 4.65444C22.0385 5.19667 18.2065 5.18939 14.3854 4.64352C13.563 4.52707 12.7114 4.28689 11.9763 3.90114C11.1684 3.47536 10.5898 2.62745 11.1684 1.74678C11.4923 1.25186 12.0491 0.960729 12.6059 0.753299C13.9669 0.243822 15.4371 0.116453 16.8891 0.0509486C17.8353 0.0109183 18.7778 -0.00363819 19.724 9.27539e-07ZM26.7512 2.75118C25.8887 2.42366 24.5386 2.19075 23.6543 2.04883C22.5043 1.86687 21.3398 1.76861 20.1753 1.75406C17.9372 1.72494 15.7683 2.0088 13.6358 2.66748C17.9226 3.62093 22.3842 3.18787 26.7548 2.74754L26.7512 2.75118Z" />
    <path d="M79.7222 35.7689C79.1582 35.7289 78.656 35.6925 78.0701 35.6525V33.3598C78.6269 33.3234 79.1582 33.2907 79.7695 33.2506V30.8052H82.4698V33.3052H84.9698V35.6561H82.488C82.488 36.1474 82.488 36.5259 82.488 36.908C82.488 38.0288 82.4807 39.1497 82.4916 40.2705C82.5025 41.2349 82.699 41.4205 83.678 41.4423C84.0637 41.4532 84.4494 41.4423 84.9516 41.4423C84.9516 42.0755 84.9953 42.6469 84.9298 43.2073C84.908 43.4038 84.6168 43.7131 84.4422 43.7204C83.5761 43.7459 82.6699 43.8296 81.8402 43.6294C80.4391 43.291 79.8205 42.323 79.7805 40.6926C79.7477 39.3607 79.7732 38.0252 79.7659 36.6933C79.7659 36.3985 79.7368 36.1037 79.7186 35.7653L79.7222 35.7689Z" />
    <path d="M99.912 43.7131H97.4447V29.4623H99.912V43.7131Z" />
    <path d="M76.709 43.724H74.198V33.3744H76.709V43.724Z" />
    <path d="M57.8147 43.6986V33.3671H60.2747V43.6986H57.8147Z" />
    <path d="M72.142 26.0779H69.6346V15.8229H72.142V26.0779Z" />
    <path d="M74.1835 15.8338H76.6872V26.0379H74.1835V15.8338Z" />
    <path d="M75.4827 32.1589C74.5547 32.1735 73.9033 31.5803 73.8778 30.696C73.8487 29.7207 74.4492 29.0657 75.3881 29.0365C76.3634 29.0074 77.0184 29.6079 77.0402 30.5541C77.0621 31.5075 76.4471 32.1444 75.4791 32.1589H75.4827Z" />
    <path d="M70.8428 14.6693C69.893 14.6911 69.2088 14.0579 69.187 13.1372C69.1652 12.2675 69.8966 11.536 70.7846 11.5324C71.6762 11.5324 72.3348 12.1547 72.3749 13.0353C72.4149 13.9742 71.7817 14.6511 70.8428 14.6693Z" />
    <path d="M75.3698 11.5324C76.2505 11.5178 76.9892 12.242 76.9856 13.1227C76.9856 13.9706 76.2905 14.6511 75.4207 14.662C74.5437 14.6729 73.8377 14.0288 73.8013 13.1773C73.7649 12.3184 74.5037 11.5433 75.3698 11.5324Z" />
    <path d="M60.595 30.6014C60.595 31.482 59.9363 32.1516 59.0593 32.1589C58.1495 32.1662 57.509 31.5257 57.5272 30.6196C57.5418 29.7498 58.2332 29.0402 59.0629 29.0365C59.9327 29.0365 60.5914 29.7025 60.595 30.6014Z" />
  </g>
  <defs>
    <clipPath id="clip0_574_3611">
      <rect width="99.9121" height="48" fill="white"/>
    </clipPath>
  </defs>
</svg>