<svg viewBox="0 0 18 18" fill="black" xmlns="http://www.w3.org/2000/svg">
<path d="M9.00009 17.1601C4.48809 17.1601 0.840088 13.5121 0.840088 9.00009C0.840088 4.48809 4.48809 0.840088 9.00009 0.840088C13.5121 0.840088 17.1601 4.48809 17.1601 9.00009C17.1601 13.5121 13.5121 17.1601 9.00009 17.1601ZM9.00009 1.80009C5.01609 1.80009 1.80009 5.01609 1.80009 9.00009C1.80009 12.9841 5.01609 16.2001 9.00009 16.2001C12.9841 16.2001 16.2001 12.9841 16.2001 9.00009C16.2001 5.01609 12.9841 1.80009 9.00009 1.80009Z" />
<path d="M12.4958 4.82495L13.1746 5.50415L5.50416 13.1745L4.82544 12.4958L12.4958 4.82495Z" />
<path d="M5.50416 4.82495L13.1746 12.4954L12.4958 13.1745L4.82544 5.50415L5.50416 4.82495Z" />
</svg>
